Griffith_Gothic-Ultra.ufo
<glyph name="exclam" format="1">
  <advance width="306"/>
  <unicode hex="0021"/>
  <outline>
    <contour>
      <point x="274" y="720" type="line"/>
      <point x="214" y="253" type="line"/>
      <point x="92" y="253" type="line"/>
      <point x="32" y="720" type="line"/>
    </contour>
    <contour>
      <point x="258" y="98" type="curve" smooth="yes"/>
      <point x="258" y="38"/>
      <point x="213" y="-7"/>
      <point x="153" y="-7" type="curve" smooth="yes"/>
      <point x="93" y="-7"/>
      <point x="48" y="38"/>
      <point x="48" y="98" type="curve" smooth="yes"/>
      <point x="48" y="158"/>
      <point x="93" y="203"/>
      <point x="153" y="203" type="curve" smooth="yes"/>
      <point x="213" y="203"/>
      <point x="258" y="158"/>
    </contour>
  </outline>
</glyph>
<glyph name="quotedbl" format="1">
  <advance width="510"/>
  <unicode hex="0022"/>
  <outline>
    <contour>
      <point x="483" y="720" type="line"/>
      <point x="431" y="399" type="line"/>
      <point x="326" y="399" type="line"/>
      <point x="274" y="720" type="line"/>
    </contour>
    <contour>
      <point x="236" y="720" type="line"/>
      <point x="184" y="399" type="line"/>
      <point x="79" y="399" type="line"/>
      <point x="27" y="720" type="line"/>
    </contour>
  </outline>
</glyph>
<glyph name="dollar" format="1">
  <advance width="613"/>
  <unicode hex="0024"/>
  <outline>
    <contour>
      <point x="596" y="210" type="curve" smooth="yes"/>
      <point x="596" y="96"/>
      <point x="510" y="17"/>
      <point x="357" y="3" type="curve"/>
      <point x="357" y="-95" type="line"/>
      <point x="253" y="-95" type="line"/>
      <point x="253" y="4" type="line"/>
      <point x="145" y="14"/>
      <point x="69" y="56"/>
      <point x="7" y="113" type="curve"/>
      <point x="109" y="232" type="line"/>
      <point x="152" y="192"/>
      <point x="204" y="155"/>
      <point x="267" y="143" type="curve"/>
      <point x="267" y="290" type="line"/>
      <point x="94" y="335"/>
      <point x="29" y="387"/>
      <point x="29" y="510" type="curve" smooth="yes"/>
      <point x="29" y="635"/>
      <point x="121" y="704"/>
      <point x="253" y="717" type="curve"/>
      <point x="253" y="762" type="line"/>
      <point x="357" y="762" type="line"/>
      <point x="357" y="717" type="line"/>
      <point x="447" y="709"/>
      <point x="506" y="681"/>
      <point x="566" y="634" type="curve"/>
      <point x="464" y="515" type="line"/>
      <point x="424" y="545"/>
      <point x="386" y="568"/>
      <point x="343" y="577" type="curve"/>
      <point x="343" y="433" type="line"/>
      <point x="533" y="384"/>
      <point x="596" y="337"/>
    </contour>
    <contour>
      <point x="267" y="453" type="curve"/>
      <point x="267" y="580" type="line"/>
      <point x="222" y="574"/>
      <point x="202" y="553"/>
      <point x="202" y="519" type="curve" smooth="yes"/>
      <point x="202" y="491"/>
      <point x="221" y="470"/>
    </contour>
    <contour>
      <point x="423" y="202" type="curve" smooth="yes"/>
      <point x="423" y="235"/>
      <point x="404" y="253"/>
      <point x="343" y="271" type="curve"/>
      <point x="343" y="139" type="line"/>
      <point x="399" y="145"/>
      <point x="423" y="167"/>
    </contour>
  </outline>
</glyph>
<glyph name="quotesingle" format="1">
  <advance width="268"/>
  <unicode hex="0027"/>
  <outline>
    <contour>
      <point x="241" y="720" type="line"/>
      <point x="189" y="399" type="line"/>
      <point x="79" y="399" type="line"/>
      <point x="27" y="720" type="line"/>
    </contour>
  </outline>
</glyph>
<glyph name="parenleft" format="1">
  <advance width="411"/>
  <unicode hex="0028"/>
  <outline>
    <contour>
      <point x="407" y="-95" type="curve"/>
      <point x="230" y="-95" type="line"/>
      <point x="119" y="4"/>
      <point x="30" y="136"/>
      <point x="30" y="320" type="curve" smooth="yes"/>
      <point x="30" y="504"/>
      <point x="119" y="636"/>
      <point x="230" y="735" type="curve"/>
      <point x="407" y="735" type="line"/>
      <point x="286" y="594"/>
      <point x="244" y="463"/>
      <point x="244" y="320" type="curve" smooth="yes"/>
      <point x="244" y="177"/>
      <point x="286" y="46"/>
    </contour>
  </outline>
</glyph>
<glyph name="parenright" format="1">
  <advance width="411"/>
  <unicode hex="0029"/>
  <outline>
    <contour>
      <point x="381" y="320" type="curve" smooth="yes"/>
      <point x="381" y="136"/>
      <point x="292" y="4"/>
      <point x="181" y="-95" type="curve"/>
      <point x="4" y="-95" type="line"/>
      <point x="125" y="46"/>
      <point x="167" y="177"/>
      <point x="167" y="320" type="curve" smooth="yes"/>
      <point x="167" y="463"/>
      <point x="125" y="594"/>
      <point x="4" y="735" type="curve"/>
      <point x="181" y="735" type="line"/>
      <point x="292" y="636"/>
      <point x="381" y="504"/>
    </contour>
  </outline>
</glyph>
<glyph name="plus" format="1">
  <advance width="600"/>
  <unicode hex="002B"/>
  <outline>
    <contour>
      <point x="567" y="271" type="line"/>
      <point x="385" y="271" type="line"/>
      <point x="385" y="88" type="line"/>
      <point x="215" y="88" type="line"/>
      <point x="215" y="271" type="line"/>
      <point x="33" y="271" type="line"/>
      <point x="33" y="439" type="line"/>
      <point x="215" y="439" type="line"/>
      <point x="215" y="622" type="line"/>
      <point x="385" y="622" type="line"/>
      <point x="385" y="439" type="line"/>
      <point x="567" y="439" type="line"/>
    </contour>
  </outline>
</glyph>
<glyph name="hyphen" format="1">
  <advance width="362"/>
  <unicode hex="002D"/>
  <unicode hex="2010"/>
  <unicode hex="2011"/>
  <outline>
    <contour>
      <point x="329" y="206" type="line"/>
      <point x="33" y="206" type="line"/>
      <point x="33" y="380" type="line"/>
      <point x="329" y="380" type="line"/>
    </contour>
  </outline>
</glyph>
<glyph name="one" format="1">
  <advance width="460"/>
  <unicode hex="0031"/>
  <outline>
    <contour>
      <point x="446" y="0" type="line"/>
      <point x="34" y="0" type="line"/>
      <point x="34" y="125" type="line"/>
      <point x="134" y="125" type="line"/>
      <point x="134" y="595" type="line"/>
      <point x="22" y="595" type="line"/>
      <point x="22" y="720" type="line"/>
      <point x="346" y="720" type="line"/>
      <point x="346" y="125" type="line"/>
      <point x="446" y="125" type="line"/>
    </contour>
  </outline>
</glyph>
<glyph name="two" format="1">
  <advance width="575"/>
  <unicode hex="0032"/>
  <outline>
    <contour>
      <point x="551" y="0" type="line"/>
      <point x="25" y="0" type="line"/>
      <point x="25" y="125" type="line"/>
      <point x="59" y="210"/>
      <point x="124" y="282"/>
      <point x="229" y="363" type="curve" smooth="yes"/>
      <point x="307" y="423"/>
      <point x="342" y="460"/>
      <point x="342" y="509" type="curve" smooth="yes"/>
      <point x="342" y="555"/>
      <point x="319" y="578"/>
      <point x="281" y="578" type="curve" smooth="yes"/>
      <point x="245" y="578"/>
      <point x="213" y="553"/>
      <point x="170" y="464" type="curve"/>
      <point x="11" y="538" type="line"/>
      <point x="71" y="671"/>
      <point x="145" y="732"/>
      <point x="289" y="732" type="curve" smooth="yes"/>
      <point x="464" y="732"/>
      <point x="542" y="646"/>
      <point x="542" y="513" type="curve" smooth="yes"/>
      <point x="542" y="396"/>
      <point x="490" y="343"/>
      <point x="367" y="258" type="curve" smooth="yes"/>
      <point x="293" y="207"/>
      <point x="259" y="182"/>
      <point x="240" y="151" type="curve"/>
      <point x="551" y="151" type="line"/>
    </contour>
  </outline>
</glyph>
<glyph name="three" format="1">
  <advance width="565"/>
  <unicode hex="0033"/>
  <outline>
    <contour>
      <point x="551" y="249" type="curve" smooth="yes"/>
      <point x="551" y="84"/>
      <point x="386" y="-8"/>
      <point x="22" y="-6" type="curve"/>
      <point x="22" y="139" type="line"/>
      <point x="265" y="144"/>
      <point x="342" y="192"/>
      <point x="342" y="248" type="curve" smooth="yes"/>
      <point x="342" y="292"/>
      <point x="313" y="311"/>
      <point x="271" y="311" type="curve" smooth="yes"/>
      <point x="240" y="311"/>
      <point x="209" y="305"/>
      <point x="173" y="293" type="curve"/>
      <point x="126" y="411" type="line"/>
      <point x="284" y="470"/>
      <point x="312" y="492"/>
      <point x="312" y="538" type="curve" smooth="yes"/>
      <point x="312" y="566"/>
      <point x="292" y="584"/>
      <point x="260" y="584" type="curve" smooth="yes"/>
      <point x="222" y="584"/>
      <point x="182" y="567"/>
      <point x="122" y="509" type="curve"/>
      <point x="14" y="608" type="line"/>
      <point x="100" y="696"/>
      <point x="178" y="732"/>
      <point x="290" y="732" type="curve" smooth="yes"/>
      <point x="436" y="732"/>
      <point x="511" y="666"/>
      <point x="511" y="575" type="curve" smooth="yes"/>
      <point x="511" y="496"/>
      <point x="458" y="449"/>
      <point x="366" y="413" type="curve"/>
      <point x="366" y="409" type="line"/>
      <point x="481" y="407"/>
      <point x="551" y="357"/>
    </contour>
  </outline>
</glyph>
<glyph name="four" format="1">
  <advance width="645"/>
  <unicode hex="0034"/>
  <outline>
    <contour>
      <point x="633" y="161" type="line"/>
      <point x="538" y="161" type="line"/>
      <point x="538" y="0" type="line"/>
      <point x="336" y="0" type="line"/>
      <point x="336" y="161" type="line"/>
      <point x="18" y="161" type="line"/>
      <point x="18" y="300" type="line"/>
      <point x="293" y="720" type="line"/>
      <point x="538" y="720" type="line"/>
      <point x="538" y="275" type="line"/>
      <point x="633" y="275" type="line"/>
    </contour>
    <contour>
      <point x="336" y="275" type="line"/>
      <point x="336" y="555" type="line"/>
      <point x="330" y="555" type="line"/>
      <point x="150" y="281" type="line"/>
      <point x="150" y="275" type="line"/>
    </contour>
  </outline>
</glyph>
<glyph name="eight" format="1">
  <advance width="615"/>
  <unicode hex="0038"/>
  <outline>
    <contour>
      <point x="592" y="201" type="curve" smooth="yes"/>
      <point x="592" y="58"/>
      <point x="465" y="-12"/>
      <point x="307" y="-12" type="curve" smooth="yes"/>
      <point x="149" y="-12"/>
      <point x="23" y="57"/>
      <point x="23" y="200" type="curve" smooth="yes"/>
      <point x="23" y="313"/>
      <point x="96" y="366"/>
      <point x="150" y="381" type="curve"/>
      <point x="150" y="386" type="line"/>
      <point x="104" y="401"/>
      <point x="43" y="443"/>
      <point x="43" y="538" type="curve" smooth="yes"/>
      <point x="43" y="658"/>
      <point x="150" y="732"/>
      <point x="307" y="732" type="curve" smooth="yes"/>
      <point x="465" y="732"/>
      <point x="572" y="660"/>
      <point x="572" y="540" type="curve" smooth="yes"/>
      <point x="572" y="445"/>
      <point x="510" y="402"/>
      <point x="465" y="386" type="curve"/>
      <point x="465" y="381" type="line"/>
      <point x="518" y="366"/>
      <point x="592" y="315"/>
    </contour>
    <contour>
      <point x="372" y="518" type="curve" smooth="yes"/>
      <point x="372" y="565"/>
      <point x="349" y="594"/>
      <point x="307" y="594" type="curve" smooth="yes"/>
      <point x="265" y="594"/>
      <point x="243" y="561"/>
      <point x="243" y="519" type="curve" smooth="yes"/>
      <point x="243" y="475"/>
      <point x="265" y="440"/>
      <point x="307" y="440" type="curve" smooth="yes"/>
      <point x="349" y="440"/>
      <point x="372" y="468"/>
    </contour>
    <contour>
      <point x="388" y="218" type="curve" smooth="yes"/>
      <point x="388" y="276"/>
      <point x="360" y="315"/>
      <point x="307" y="315" type="curve" smooth="yes"/>
      <point x="254" y="315"/>
      <point x="227" y="277"/>
      <point x="227" y="220" type="curve" smooth="yes"/>
      <point x="227" y="164"/>
      <point x="253" y="126"/>
      <point x="307" y="126" type="curve" smooth="yes"/>
      <point x="360" y="126"/>
      <point x="388" y="163"/>
    </contour>
  </outline>
</glyph>
<glyph name="nine" format="1">
  <advance width="625"/>
  <unicode hex="0039"/>
  <outline>
    <contour>
      <point x="598" y="454" type="curve" smooth="yes"/>
      <point x="598" y="296"/>
      <point x="508" y="134"/>
      <point x="358" y="0" type="curve"/>
      <point x="106" y="0" type="line"/>
      <point x="264" y="106"/>
      <point x="364" y="212"/>
      <point x="396" y="292" type="curve"/>
      <point x="390" y="292" type="line"/>
      <point x="352" y="262"/>
      <point x="309" y="241"/>
      <point x="235" y="241" type="curve" smooth="yes"/>
      <point x="115" y="241"/>
      <point x="23" y="318"/>
      <point x="23" y="473" type="curve" smooth="yes"/>
      <point x="23" y="637"/>
      <point x="126" y="732"/>
      <point x="314" y="732" type="curve" smooth="yes"/>
      <point x="500" y="732"/>
      <point x="598" y="647"/>
    </contour>
    <contour>
      <point x="394" y="486" type="curve" smooth="yes"/>
      <point x="394" y="546"/>
      <point x="371" y="594"/>
      <point x="311" y="594" type="curve" smooth="yes"/>
      <point x="251" y="594"/>
      <point x="228" y="546"/>
      <point x="228" y="486" type="curve" smooth="yes"/>
      <point x="228" y="426"/>
      <point x="251" y="378"/>
      <point x="311" y="378" type="curve" smooth="yes"/>
      <point x="371" y="378"/>
      <point x="394" y="426"/>
    </contour>
  </outline>
</glyph>
<glyph name="semicolon" format="1">
  <advance width="278"/>
  <unicode hex="003B"/>
  <outline>
    <contour>
      <point x="254" y="439" type="curve" smooth="yes"/>
      <point x="254" y="376"/>
      <point x="207" y="329"/>
      <point x="144" y="329" type="curve" smooth="yes"/>
      <point x="81" y="329"/>
      <point x="34" y="376"/>
      <point x="34" y="439" type="curve" smooth="yes"/>
      <point x="34" y="502"/>
      <point x="81" y="549"/>
      <point x="144" y="549" type="curve" smooth="yes"/>
      <point x="207" y="549"/>
      <point x="254" y="502"/>
    </contour>
    <contour>
      <point x="260" y="208" type="line"/>
      <point x="132" y="-113" type="line"/>
      <point x="23" y="-113" type="line"/>
      <point x="47" y="208" type="line"/>
    </contour>
  </outline>
</glyph>
<glyph name="greater" format="1">
  <advance width="600"/>
  <unicode hex="003E"/>
  <outline>
    <contour>
      <point x="564" y="275" type="line"/>
      <point x="40" y="59" type="line"/>
      <point x="40" y="236" type="line"/>
      <point x="371" y="355" type="line"/>
      <point x="40" y="474" type="line"/>
      <point x="40" y="651" type="line"/>
      <point x="564" y="435" type="line"/>
    </contour>
  </outline>
</glyph>
<glyph name="question" format="1">
  <advance width="532"/>
  <unicode hex="003F"/>
  <outline>
    <contour>
      <point x="512" y="532" type="curve" smooth="yes"/>
      <point x="512" y="436"/>
      <point x="473" y="388"/>
      <point x="391" y="342" type="curve" smooth="yes"/>
      <point x="334" y="309"/>
      <point x="308" y="286"/>
      <point x="300" y="253" type="curve"/>
      <point x="174" y="253" type="line"/>
      <point x="161" y="342"/>
      <point x="185" y="379"/>
      <point x="253" y="430" type="curve" smooth="yes"/>
      <point x="293" y="460"/>
      <point x="309" y="488"/>
      <point x="309" y="523" type="curve" smooth="yes"/>
      <point x="309" y="556"/>
      <point x="293" y="577"/>
      <point x="260" y="577" type="curve" smooth="yes"/>
      <point x="227" y="577"/>
      <point x="199" y="555"/>
      <point x="160" y="467" type="curve"/>
      <point x="6" y="538" type="line"/>
      <point x="56" y="664"/>
      <point x="125" y="732"/>
      <point x="269" y="732" type="curve" smooth="yes"/>
      <point x="427" y="732"/>
      <point x="512" y="654"/>
    </contour>
    <contour>
      <point x="341" y="98" type="curve" smooth="yes"/>
      <point x="341" y="38"/>
      <point x="296" y="-7"/>
      <point x="236" y="-7" type="curve" smooth="yes"/>
      <point x="176" y="-7"/>
      <point x="131" y="38"/>
      <point x="131" y="98" type="curve" smooth="yes"/>
      <point x="131" y="158"/>
      <point x="176" y="203"/>
      <point x="236" y="203" type="curve" smooth="yes"/>
      <point x="296" y="203"/>
      <point x="341" y="158"/>
    </contour>
  </outline>
</glyph>
<glyph name="at" format="1">
  <advance width="970"/>
  <unicode hex="0040"/>
  <outline>
    <contour>
      <point x="929" y="333" type="curve" smooth="yes"/>
      <point x="929" y="134"/>
      <point x="814" y="21"/>
      <point x="672" y="21" type="curve" smooth="yes"/>
      <point x="582" y="21"/>
      <point x="537" y="69"/>
      <point x="521" y="133" type="curve"/>
      <point x="517" y="133" type="line"/>
      <point x="477" y="65"/>
      <point x="417" y="21"/>
      <point x="352" y="21" type="curve" smooth="yes"/>
      <point x="274" y="21"/>
      <point x="233" y="79"/>
      <point x="233" y="183" type="curve" smooth="yes"/>
      <point x="233" y="322"/>
      <point x="291" y="522"/>
      <point x="418" y="522" type="curve" smooth="yes"/>
      <point x="487" y="522"/>
      <point x="518" y="484"/>
      <point x="542" y="427" type="curve"/>
      <point x="546" y="427" type="line"/>
      <point x="562" y="523" type="line"/>
      <point x="742" y="501" type="line"/>
      <point x="683" y="172" type="line" smooth="yes"/>
      <point x="673" y="116"/>
      <point x="691" y="84"/>
      <point x="735" y="84" type="curve" smooth="yes"/>
      <point x="814" y="84"/>
      <point x="880" y="191"/>
      <point x="880" y="331" type="curve" smooth="yes"/>
      <point x="880" y="552"/>
      <point x="725" y="690"/>
      <point x="502" y="690" type="curve" smooth="yes"/>
      <point x="270" y="690"/>
      <point x="91" y="502"/>
      <point x="91" y="266" type="curve" smooth="yes"/>
      <point x="91" y="17"/>
      <point x="250" y="-150"/>
      <point x="493" y="-150" type="curve" smooth="yes"/>
      <point x="613" y="-150"/>
      <point x="697" y="-127"/>
      <point x="785" y="-78" type="curve"/>
      <point x="806" y="-114" type="line"/>
      <point x="713" y="-164"/>
      <point x="621" y="-192"/>
      <point x="491" y="-192" type="curve" smooth="yes"/>
      <point x="221" y="-192"/>
      <point x="41" y="-10"/>
      <point x="41" y="265" type="curve" smooth="yes"/>
      <point x="41" y="529"/>
      <point x="251" y="732"/>
      <point x="505" y="732" type="curve" smooth="yes"/>
      <point x="744" y="732"/>
      <point x="929" y="574"/>
    </contour>
    <contour>
      <point x="526" y="344" type="curve" smooth="yes"/>
      <point x="526" y="382"/>
      <point x="515" y="402"/>
      <point x="492" y="402" type="curve" smooth="yes"/>
      <point x="451" y="402"/>
      <point x="415" y="296"/>
      <point x="415" y="186" type="curve" smooth="yes"/>
      <point x="415" y="148"/>
      <point x="426" y="128"/>
      <point x="449" y="128" type="curve" smooth="yes"/>
      <point x="490" y="128"/>
      <point x="526" y="234"/>
    </contour>
  </outline>
</glyph>
<glyph name="F" format="1">
  <advance width="540"/>
  <unicode hex="0046"/>
  <outline>
    <contour>
      <point x="522" y="554" type="line"/>
      <point x="258" y="554" type="line"/>
      <point x="258" y="427" type="line"/>
      <point x="429" y="427" type="line"/>
      <point x="429" y="266" type="line"/>
      <point x="258" y="266" type="line"/>
      <point x="258" y="0" type="line"/>
      <point x="42" y="0" type="line"/>
      <point x="42" y="720" type="line"/>
      <point x="522" y="720" type="line"/>
    </contour>
  </outline>
</glyph>
<glyph name="K" format="1">
  <advance width="687"/>
  <unicode hex="004B"/>
  <outline>
    <contour>
      <point x="691" y="0" type="line"/>
      <point x="457" y="0" type="line"/>
      <point x="267" y="386" type="line"/>
      <point x="267" y="388" type="line"/>
      <point x="442" y="720" type="line"/>
      <point x="674" y="720" type="line"/>
      <point x="488" y="395" type="line"/>
    </contour>
    <contour>
      <point x="258" y="0" type="line"/>
      <point x="42" y="0" type="line"/>
      <point x="42" y="720" type="line"/>
      <point x="258" y="720" type="line"/>
    </contour>
  </outline>
</glyph>
<glyph name="L" format="1">
  <advance width="540"/>
  <unicode hex="004C"/>
  <outline>
    <contour>
      <point x="522" y="0" type="line"/>
      <point x="42" y="0" type="line"/>
      <point x="42" y="720" type="line"/>
      <point x="258" y="720" type="line"/>
      <point x="258" y="180" type="line"/>
      <point x="522" y="180" type="line"/>
    </contour>
  </outline>
</glyph>
<glyph name="M" format="1">
  <advance width="922"/>
  <unicode hex="004D"/>
  <outline>
    <contour>
      <point x="880" y="0" type="line"/>
      <point x="683" y="0" type="line"/>
      <point x="683" y="476" type="line"/>
      <point x="678" y="476" type="line"/>
      <point x="560" y="0" type="line"/>
      <point x="356" y="0" type="line"/>
      <point x="238" y="476" type="line"/>
      <point x="233" y="476" type="line"/>
      <point x="233" y="0" type="line"/>
      <point x="42" y="0" type="line"/>
      <point x="42" y="720" type="line"/>
      <point x="357" y="720" type="line"/>
      <point x="462" y="292" type="line"/>
      <point x="466" y="292" type="line"/>
      <point x="571" y="720" type="line"/>
      <point x="880" y="720" type="line"/>
    </contour>
  </outline>
</glyph>
<glyph name="N" format="1">
  <advance width="662"/>
  <unicode hex="004E"/>
  <outline>
    <contour>
      <point x="620" y="0" type="line"/>
      <point x="437" y="0" type="line"/>
      <point x="244" y="369" type="line"/>
      <point x="240" y="369" type="line"/>
      <point x="240" y="0" type="line"/>
      <point x="42" y="0" type="line"/>
      <point x="42" y="720" type="line"/>
      <point x="245" y="720" type="line"/>
      <point x="418" y="387" type="line"/>
      <point x="422" y="387" type="line"/>
      <point x="422" y="720" type="line"/>
      <point x="620" y="720" type="line"/>
    </contour>
  </outline>
</glyph>
<glyph name="Q" format="1">
  <advance width="664"/>
  <unicode hex="0051"/>
  <outline>
    <contour>
      <point x="665" y="-124" type="line"/>
      <point x="652" y="-127"/>
      <point x="640" y="-129"/>
      <point x="618" y="-129" type="curve" smooth="yes"/>
      <point x="549" y="-129"/>
      <point x="511" y="-114"/>
      <point x="469" y="-53" type="curve" smooth="yes"/>
      <point x="432" y="1" type="line"/>
      <point x="402" y="-7"/>
      <point x="368" y="-12"/>
      <point x="332" y="-12" type="curve" smooth="yes"/>
      <point x="152" y="-12"/>
      <point x="30" y="100"/>
      <point x="30" y="325" type="curve" smooth="yes"/>
      <point x="30" y="395" type="line" smooth="yes"/>
      <point x="30" y="620"/>
      <point x="152" y="732"/>
      <point x="332" y="732" type="curve" smooth="yes"/>
      <point x="512" y="732"/>
      <point x="634" y="620"/>
      <point x="634" y="395" type="curve" smooth="yes"/>
      <point x="634" y="325" type="line" smooth="yes"/>
      <point x="634" y="203"/>
      <point x="598" y="114"/>
      <point x="537" y="59" type="curve"/>
      <point x="559" y="30" type="line" smooth="yes"/>
      <point x="577" y="6"/>
      <point x="594" y="-3"/>
      <point x="624" y="-3" type="curve" smooth="yes"/>
      <point x="636" y="-3"/>
      <point x="652" y="-1"/>
      <point x="665" y="2" type="curve"/>
    </contour>
    <contour>
      <point x="410" y="276" type="curve" smooth="yes"/>
      <point x="410" y="424" type="line" smooth="yes"/>
      <point x="410" y="525"/>
      <point x="387" y="570"/>
      <point x="332" y="570" type="curve" smooth="yes"/>
      <point x="277" y="570"/>
      <point x="254" y="525"/>
      <point x="254" y="424" type="curve" smooth="yes"/>
      <point x="254" y="276" type="line" smooth="yes"/>
      <point x="254" y="175"/>
      <point x="277" y="130"/>
      <point x="332" y="130" type="curve" smooth="yes"/>
      <point x="342" y="130"/>
      <point x="351" y="132"/>
      <point x="359" y="135" type="curve"/>
      <point x="293" y="234" type="line"/>
      <point x="360" y="277" type="line"/>
      <point x="406" y="211" type="line"/>
      <point x="409" y="230"/>
      <point x="410" y="251"/>
    </contour>
  </outline>
</glyph>
<glyph name="R" format="1">
  <advance width="635"/>
  <unicode hex="0052"/>
  <outline>
    <contour>
      <point x="636" y="0" type="line"/>
      <point x="407" y="0" type="line"/>
      <point x="277" y="270" type="line"/>
      <point x="258" y="270" type="line"/>
      <point x="258" y="0" type="line"/>
      <point x="42" y="0" type="line"/>
      <point x="42" y="720" type="line"/>
      <point x="326" y="720" type="line" smooth="yes"/>
      <point x="491" y="720"/>
      <point x="599" y="650"/>
      <point x="599" y="497" type="curve" smooth="yes"/>
      <point x="599" y="406"/>
      <point x="557" y="339"/>
      <point x="480" y="303" type="curve"/>
    </contour>
    <contour>
      <point x="384" y="494" type="curve" smooth="yes"/>
      <point x="384" y="545"/>
      <point x="353" y="570"/>
      <point x="298" y="570" type="curve" smooth="yes"/>
      <point x="249" y="570" type="line"/>
      <point x="249" y="410" type="line"/>
      <point x="298" y="410" type="line" smooth="yes"/>
      <point x="355" y="410"/>
      <point x="384" y="442"/>
    </contour>
  </outline>
</glyph>
<glyph name="T" format="1">
  <advance width="610"/>
  <unicode hex="0054"/>
  <outline>
    <contour>
      <point x="592" y="540" type="line"/>
      <point x="413" y="540" type="line"/>
      <point x="413" y="0" type="line"/>
      <point x="197" y="0" type="line"/>
      <point x="197" y="540" type="line"/>
      <point x="18" y="540" type="line"/>
      <point x="18" y="720" type="line"/>
      <point x="592" y="720" type="line"/>
    </contour>
  </outline>
</glyph>
<glyph name="U" format="1">
  <advance width="638"/>
  <unicode hex="0055"/>
  <outline>
    <contour>
      <point x="603" y="275" type="line" smooth="yes"/>
      <point x="603" y="74"/>
      <point x="494" y="-12"/>
      <point x="318" y="-12" type="curve" smooth="yes"/>
      <point x="142" y="-12"/>
      <point x="35" y="74"/>
      <point x="35" y="275" type="curve" smooth="yes"/>
      <point x="35" y="720" type="line"/>
      <point x="251" y="720" type="line"/>
      <point x="251" y="267" type="line" smooth="yes"/>
      <point x="251" y="189"/>
      <point x="276" y="157"/>
      <point x="325" y="157" type="curve" smooth="yes"/>
      <point x="374" y="157"/>
      <point x="397" y="189"/>
      <point x="397" y="267" type="curve" smooth="yes"/>
      <point x="397" y="720" type="line"/>
      <point x="603" y="720" type="line"/>
    </contour>
  </outline>
</glyph>
<glyph name="Y" format="1">
  <advance width="660"/>
  <unicode hex="0059"/>
  <outline>
    <contour>
      <point x="657" y="720" type="line"/>
      <point x="438" y="288" type="line"/>
      <point x="438" y="0" type="line"/>
      <point x="222" y="0" type="line"/>
      <point x="222" y="284" type="line"/>
      <point x="3" y="720" type="line"/>
      <point x="234" y="720" type="line"/>
      <point x="340" y="480" type="line"/>
      <point x="446" y="720" type="line"/>
    </contour>
  </outline>
</glyph>
<glyph name="Z" format="1">
  <advance width="582"/>
  <unicode hex="005A"/>
  <outline>
    <contour>
      <point x="554" y="0" type="line"/>
      <point x="27" y="0" type="line"/>
      <point x="27" y="146" type="line"/>
      <point x="308" y="554" type="line"/>
      <point x="42" y="554" type="line"/>
      <point x="42" y="720" type="line"/>
      <point x="554" y="720" type="line"/>
      <point x="554" y="574" type="line"/>
      <point x="273" y="166" type="line"/>
      <point x="554" y="166" type="line"/>
    </contour>
  </outline>
</glyph>
<glyph name="bracketleft" format="1">
  <advance width="420"/>
  <unicode hex="005B"/>
  <outline>
    <contour>
      <point x="399" y="-80" type="line"/>
      <point x="53" y="-91" type="line"/>
      <point x="53" y="731" type="line"/>
      <point x="399" y="720" type="line"/>
      <point x="399" y="645" type="line"/>
      <point x="242" y="650" type="line"/>
      <point x="242" y="-10" type="line"/>
      <point x="399" y="-5" type="line"/>
    </contour>
  </outline>
</glyph>
<glyph name="backslash" format="1">
  <advance width="476"/>
  <unicode hex="005C"/>
  <outline>
    <contour>
      <point x="499" y="-95" type="line"/>
      <point x="308" y="-95" type="line"/>
      <point x="7" y="735" type="line"/>
      <point x="198" y="735" type="line"/>
    </contour>
  </outline>
</glyph>
<glyph name="bracketright" format="1">
  <advance width="420"/>
  <unicode hex="005D"/>
  <outline>
    <contour>
      <point x="367" y="-91" type="line"/>
      <point x="21" y="-80" type="line"/>
      <point x="21" y="-5" type="line"/>
      <point x="178" y="-10" type="line"/>
      <point x="178" y="650" type="line"/>
      <point x="21" y="645" type="line"/>
      <point x="21" y="720" type="line"/>
      <point x="367" y="731" type="line"/>
    </contour>
  </outline>
</glyph>
<glyph name="asciicircum" format="1">
  <advance width="550"/>
  <unicode hex="005E"/>
  <outline>
    <contour>
      <point x="533" y="407" type="line"/>
      <point x="402" y="407" type="line"/>
      <point x="275" y="556" type="line"/>
      <point x="148" y="407" type="line"/>
      <point x="17" y="407" type="line"/>
      <point x="182" y="725" type="line"/>
      <point x="368" y="725" type="line"/>
    </contour>
  </outline>
</glyph>
<glyph name="a" format="1">
  <advance width="547"/>
  <unicode hex="0061"/>
  <outline>
    <contour>
      <point x="541" y="-5" type="line"/>
      <point x="401" y="-5"/>
      <point x="336" y="20"/>
      <point x="315" y="67" type="curve"/>
      <point x="310" y="67" type="line"/>
      <point x="262" y="19"/>
      <point x="218" y="-5"/>
      <point x="159" y="-5" type="curve" smooth="yes"/>
      <point x="81" y="-5"/>
      <point x="16" y="46"/>
      <point x="16" y="139" type="curve" smooth="yes"/>
      <point x="16" y="249"/>
      <point x="104" y="308"/>
      <point x="307" y="321" type="curve"/>
      <point x="307" y="362" type="line" smooth="yes"/>
      <point x="307" y="393"/>
      <point x="287" y="413"/>
      <point x="250" y="413" type="curve" smooth="yes"/>
      <point x="214" y="413"/>
      <point x="167" y="401"/>
      <point x="93" y="363" type="curve"/>
      <point x="41" y="480" type="line"/>
      <point x="126" y="524"/>
      <point x="199" y="548"/>
      <point x="285" y="548" type="curve" smooth="yes"/>
      <point x="433" y="548"/>
      <point x="494" y="496"/>
      <point x="494" y="365" type="curve" smooth="yes"/>
      <point x="494" y="112" type="line" smooth="yes"/>
      <point x="494" y="75"/>
      <point x="502" y="69"/>
      <point x="541" y="63" type="curve"/>
    </contour>
    <contour>
      <point x="307" y="122" type="curve"/>
      <point x="307" y="252" type="line"/>
      <point x="222" y="239"/>
      <point x="199" y="210"/>
      <point x="199" y="165" type="curve" smooth="yes"/>
      <point x="199" y="130"/>
      <point x="219" y="110"/>
      <point x="255" y="110" type="curve" smooth="yes"/>
      <point x="275" y="110"/>
      <point x="289" y="113"/>
    </contour>
  </outline>
</glyph>
<glyph name="c" format="1">
  <advance width="520"/>
  <unicode hex="0063"/>
  <outline>
    <contour>
      <point x="507" y="178" type="line"/>
      <point x="483" y="46"/>
      <point x="401" y="-10"/>
      <point x="269" y="-10" type="curve" smooth="yes"/>
      <point x="116" y="-10"/>
      <point x="22" y="87"/>
      <point x="22" y="255" type="curve" smooth="yes"/>
      <point x="22" y="287" type="line" smooth="yes"/>
      <point x="22" y="455"/>
      <point x="117" y="552"/>
      <point x="275" y="552" type="curve" smooth="yes"/>
      <point x="410" y="552"/>
      <point x="488" y="488"/>
      <point x="506" y="354" type="curve"/>
      <point x="322" y="321" type="line"/>
      <point x="318" y="394"/>
      <point x="308" y="422"/>
      <point x="273" y="422" type="curve" smooth="yes"/>
      <point x="238" y="422"/>
      <point x="225" y="391"/>
      <point x="225" y="278" type="curve" smooth="yes"/>
      <point x="225" y="264" type="line" smooth="yes"/>
      <point x="225" y="151"/>
      <point x="240" y="120"/>
      <point x="275" y="120" type="curve" smooth="yes"/>
      <point x="303" y="120"/>
      <point x="318" y="139"/>
      <point x="327" y="211" type="curve"/>
    </contour>
  </outline>
</glyph>
<glyph name="q" format="1">
  <advance width="571"/>
  <unicode hex="0071"/>
  <outline>
    <contour>
      <point x="532" y="-188" type="line"/>
      <point x="328" y="-188" type="line"/>
      <point x="328" y="87" type="line"/>
      <point x="324" y="87" type="line"/>
      <point x="282" y="29"/>
      <point x="243" y="-7"/>
      <point x="183" y="-7" type="curve" smooth="yes"/>
      <point x="79" y="-7"/>
      <point x="25" y="87"/>
      <point x="25" y="255" type="curve" smooth="yes"/>
      <point x="25" y="287" type="line" smooth="yes"/>
      <point x="25" y="455"/>
      <point x="84" y="549"/>
      <point x="183" y="549" type="curve" smooth="yes"/>
      <point x="249" y="549"/>
      <point x="286" y="515"/>
      <point x="324" y="455" type="curve"/>
      <point x="328" y="455" type="line"/>
      <point x="328" y="550" type="line"/>
      <point x="532" y="526" type="line"/>
    </contour>
    <contour>
      <point x="328" y="272" type="curve" smooth="yes"/>
      <point x="328" y="384"/>
      <point x="309" y="421"/>
      <point x="277" y="421" type="curve" smooth="yes"/>
      <point x="245" y="421"/>
      <point x="225" y="384"/>
      <point x="225" y="272" type="curve" smooth="yes"/>
      <point x="225" y="158"/>
      <point x="245" y="121"/>
      <point x="277" y="121" type="curve" smooth="yes"/>
      <point x="309" y="121"/>
      <point x="328" y="158"/>
    </contour>
  </outline>
</glyph>
<glyph name="s" format="1">
  <advance width="485"/>
  <unicode hex="0073"/>
  <outline>
    <contour>
      <point x="474" y="168" type="curve" smooth="yes"/>
      <point x="474" y="49"/>
      <point x="384" y="-10"/>
      <point x="242" y="-10" type="curve" smooth="yes"/>
      <point x="127" y="-10"/>
      <point x="52" y="31"/>
      <point x="3" y="88" type="curve"/>
      <point x="102" y="185" type="line"/>
      <point x="140" y="135"/>
      <point x="199" y="111"/>
      <point x="247" y="111" type="curve" smooth="yes"/>
      <point x="282" y="111"/>
      <point x="302" y="122"/>
      <point x="302" y="141" type="curve" smooth="yes"/>
      <point x="302" y="161"/>
      <point x="288" y="171"/>
      <point x="206" y="192" type="curve" smooth="yes"/>
      <point x="73" y="227"/>
      <point x="26" y="287"/>
      <point x="26" y="375" type="curve" smooth="yes"/>
      <point x="26" y="492"/>
      <point x="121" y="552"/>
      <point x="247" y="552" type="curve" smooth="yes"/>
      <point x="344" y="552"/>
      <point x="412" y="521"/>
      <point x="455" y="465" type="curve"/>
      <point x="356" y="368" type="line"/>
      <point x="317" y="414"/>
      <point x="285" y="431"/>
      <point x="242" y="431" type="curve" smooth="yes"/>
      <point x="212" y="431"/>
      <point x="198" y="418"/>
      <point x="198" y="401" type="curve" smooth="yes"/>
      <point x="198" y="382"/>
      <point x="211" y="369"/>
      <point x="289" y="349" type="curve" smooth="yes"/>
      <point x="421" y="315"/>
      <point x="474" y="260"/>
    </contour>
  </outline>
</glyph>
<glyph name="t" format="1">
  <advance width="461"/>
  <unicode hex="0074"/>
  <outline>
    <contour>
      <point x="445" y="29" type="line"/>
      <point x="385" y="2"/>
      <point x="330" y="-10"/>
      <point x="263" y="-10" type="curve" smooth="yes"/>
      <point x="149" y="-10"/>
      <point x="99" y="40"/>
      <point x="99" y="140" type="curve" smooth="yes"/>
      <point x="99" y="406" type="line"/>
      <point x="9" y="406" type="line"/>
      <point x="9" y="540" type="line"/>
      <point x="99" y="540" type="line"/>
      <point x="99" y="704" type="line"/>
      <point x="300" y="728" type="line"/>
      <point x="300" y="540" type="line"/>
      <point x="435" y="540" type="line"/>
      <point x="435" y="406" type="line"/>
      <point x="300" y="406" type="line"/>
      <point x="300" y="189" type="line" smooth="yes"/>
      <point x="300" y="163"/>
      <point x="314" y="147"/>
      <point x="341" y="147" type="curve" smooth="yes"/>
      <point x="367" y="147"/>
      <point x="396" y="154"/>
      <point x="445" y="176" type="curve"/>
    </contour>
  </outline>
</glyph>
<glyph name="u" format="1">
  <advance width="572"/>
  <unicode hex="0075"/>
  <outline>
    <contour>
      <point x="533" y="16" type="line"/>
      <point x="329" y="-8" type="line"/>
      <point x="329" y="100" type="line"/>
      <point x="325" y="100" type="line"/>
      <point x="263" y="23"/>
      <point x="217" y="-7"/>
      <point x="153" y="-7" type="curve" smooth="yes"/>
      <point x="77" y="-7"/>
      <point x="32" y="39"/>
      <point x="32" y="141" type="curve" smooth="yes"/>
      <point x="32" y="542" type="line"/>
      <point x="236" y="542" type="line"/>
      <point x="236" y="188" type="line" smooth="yes"/>
      <point x="236" y="152"/>
      <point x="249" y="134"/>
      <point x="281" y="134" type="curve" smooth="yes"/>
      <point x="297" y="134"/>
      <point x="312" y="138"/>
      <point x="329" y="147" type="curve"/>
      <point x="329" y="542" type="line"/>
      <point x="533" y="542" type="line"/>
    </contour>
  </outline>
</glyph>
<glyph name="v" format="1">
  <advance width="580"/>
  <unicode hex="0076"/>
  <outline>
    <contour>
      <point x="575" y="542" type="line"/>
      <point x="402" y="-4" type="line"/>
      <point x="178" y="-4" type="line"/>
      <point x="5" y="542" type="line"/>
      <point x="214" y="542" type="line"/>
      <point x="295" y="203" type="line"/>
      <point x="376" y="542" type="line"/>
    </contour>
  </outline>
</glyph>
<glyph name="w" format="1">
  <advance width="866"/>
  <unicode hex="0077"/>
  <outline>
    <contour>
      <point x="858" y="542" type="line"/>
      <point x="715" y="-4" type="line"/>
      <point x="503" y="-4" type="line"/>
      <point x="435" y="300" type="line"/>
      <point x="367" y="-4" type="line"/>
      <point x="151" y="-4" type="line"/>
      <point x="8" y="542" type="line"/>
      <point x="217" y="542" type="line"/>
      <point x="268" y="218" type="line"/>
      <point x="339" y="542" type="line"/>
      <point x="537" y="542" type="line"/>
      <point x="608" y="218" type="line"/>
      <point x="659" y="542" type="line"/>
    </contour>
  </outline>
</glyph>
<glyph name="z" format="1">
  <advance width="485"/>
  <unicode hex="007A"/>
  <outline>
    <contour>
      <point x="466" y="0" type="line"/>
      <point x="23" y="0" type="line"/>
      <point x="23" y="119" type="line"/>
      <point x="236" y="408" type="line"/>
      <point x="38" y="408" type="line"/>
      <point x="38" y="542" type="line"/>
      <point x="466" y="542" type="line"/>
      <point x="466" y="423" type="line"/>
      <point x="253" y="134" type="line"/>
      <point x="466" y="134" type="line"/>
    </contour>
  </outline>
</glyph>
<glyph name="braceleft" format="1">
  <advance width="480"/>
  <unicode hex="007B"/>
  <outline>
    <contour>
      <point x="460" y="-80" type="line"/>
      <point x="279" y="-80" type="line" smooth="yes"/>
      <point x="175" y="-80"/>
      <point x="120" y="-38"/>
      <point x="120" y="48" type="curve" smooth="yes"/>
      <point x="120" y="89"/>
      <point x="140" y="143"/>
      <point x="140" y="188" type="curve" smooth="yes"/>
      <point x="140" y="259"/>
      <point x="84" y="283"/>
      <point x="9" y="283" type="curve"/>
      <point x="9" y="357" type="line"/>
      <point x="84" y="357"/>
      <point x="140" y="381"/>
      <point x="140" y="452" type="curve" smooth="yes"/>
      <point x="140" y="497"/>
      <point x="120" y="551"/>
      <point x="120" y="592" type="curve" smooth="yes"/>
      <point x="120" y="678"/>
      <point x="175" y="720"/>
      <point x="279" y="720" type="curve" smooth="yes"/>
      <point x="460" y="720" type="line"/>
      <point x="460" y="645" type="line"/>
      <point x="380" y="645" type="line" smooth="yes"/>
      <point x="333" y="645"/>
      <point x="309" y="624"/>
      <point x="309" y="582" type="curve" smooth="yes"/>
      <point x="309" y="551"/>
      <point x="329" y="495"/>
      <point x="329" y="447" type="curve" smooth="yes"/>
      <point x="329" y="370"/>
      <point x="280" y="343"/>
      <point x="224" y="324" type="curve"/>
      <point x="224" y="316" type="line"/>
      <point x="280" y="297"/>
      <point x="329" y="270"/>
      <point x="329" y="193" type="curve" smooth="yes"/>
      <point x="329" y="145"/>
      <point x="309" y="89"/>
      <point x="309" y="58" type="curve" smooth="yes"/>
      <point x="309" y="16"/>
      <point x="333" y="-5"/>
      <point x="380" y="-5" type="curve" smooth="yes"/>
      <point x="460" y="-5" type="line"/>
    </contour>
  </outline>
</glyph>
<glyph name="bar" format="1">
  <advance width="276"/>
  <unicode hex="007C"/>
  <outline>
    <contour>
      <point x="221" y="-188" type="line"/>
      <point x="55" y="-188" type="line"/>
      <point x="55" y="762" type="line"/>
      <point x="221" y="762" type="line"/>
    </contour>
  </outline>
</glyph>
<glyph name="asciitilde" format="1">
  <advance width="426"/>
  <unicode hex="007E"/>
  <outline>
    <contour>
      <point x="396" y="380" type="line"/>
      <point x="404" y="259"/>
      <point x="371" y="205"/>
      <point x="294" y="205" type="curve" smooth="yes"/>
      <point x="224" y="205"/>
      <point x="185" y="255"/>
      <point x="151" y="255" type="curve" smooth="yes"/>
      <point x="130" y="255"/>
      <point x="121" y="242"/>
      <point x="120" y="207" type="curve"/>
      <point x="30" y="207" type="line"/>
      <point x="22" y="328"/>
      <point x="55" y="382"/>
      <point x="132" y="382" type="curve" smooth="yes"/>
      <point x="202" y="382"/>
      <point x="241" y="332"/>
      <point x="275" y="332" type="curve" smooth="yes"/>
      <point x="296" y="332"/>
      <point x="305" y="345"/>
      <point x="306" y="380" type="curve"/>
    </contour>
  </outline>
</glyph>
<glyph name="exclamdown" format="1">
  <advance width="306"/>
  <unicode hex="00A1"/>
  <outline>
    <contour>
      <point x="258" y="622" type="curve" smooth="yes"/>
      <point x="258" y="562"/>
      <point x="213" y="517"/>
      <point x="153" y="517" type="curve" smooth="yes"/>
      <point x="93" y="517"/>
      <point x="48" y="562"/>
      <point x="48" y="622" type="curve" smooth="yes"/>
      <point x="48" y="682"/>
      <point x="93" y="727"/>
      <point x="153" y="727" type="curve" smooth="yes"/>
      <point x="213" y="727"/>
      <point x="258" y="682"/>
    </contour>
    <contour>
      <point x="274" y="0" type="line"/>
      <point x="32" y="0" type="line"/>
      <point x="92" y="467" type="line"/>
      <point x="214" y="467" type="line"/>
    </contour>
  </outline>
</glyph>
<glyph name="cent" format="1">
  <advance width="530"/>
  <unicode hex="00A2"/>
  <outline>
    <contour>
      <point x="538" y="637" type="line"/>
      <point x="258" y="119" type="line"/>
      <point x="263" y="117"/>
      <point x="269" y="116"/>
      <point x="275" y="116" type="curve" smooth="yes"/>
      <point x="304" y="116"/>
      <point x="330" y="135"/>
      <point x="339" y="211" type="curve"/>
      <point x="507" y="178" type="line"/>
      <point x="483" y="46"/>
      <point x="401" y="-10"/>
      <point x="269" y="-10" type="curve" smooth="yes"/>
      <point x="242" y="-10"/>
      <point x="216" y="-7"/>
      <point x="193" y="-1" type="curve"/>
      <point x="142" y="-95" type="line"/>
      <point x="31" y="-95" type="line"/>
      <point x="110" y="40" type="line"/>
      <point x="54" y="84"/>
      <point x="22" y="158"/>
      <point x="22" y="255" type="curve" smooth="yes"/>
      <point x="22" y="287" type="line" smooth="yes"/>
      <point x="22" y="455"/>
      <point x="117" y="552"/>
      <point x="275" y="552" type="curve" smooth="yes"/>
      <point x="314" y="552"/>
      <point x="348" y="546"/>
      <point x="378" y="535" type="curve"/>
      <point x="427" y="637" type="line"/>
    </contour>
    <contour>
      <point x="320" y="415" type="line"/>
      <point x="307" y="423"/>
      <point x="295" y="426"/>
      <point x="278" y="426" type="curve" smooth="yes"/>
      <point x="236" y="426"/>
      <point x="213" y="395"/>
      <point x="213" y="278" type="curve" smooth="yes"/>
      <point x="213" y="264" type="line" smooth="yes"/>
      <point x="213" y="239"/>
      <point x="214" y="218"/>
      <point x="216" y="200" type="curve"/>
    </contour>
  </outline>
</glyph>
<glyph name="yen" format="1">
  <advance width="660"/>
  <unicode hex="00A5"/>
  <outline>
    <contour>
      <point x="657" y="720" type="line"/>
      <point x="500" y="420" type="line"/>
      <point x="614" y="420" type="line"/>
      <point x="614" y="325" type="line"/>
      <point x="450" y="325" type="line"/>
      <point x="431" y="288" type="line"/>
      <point x="431" y="224" type="line"/>
      <point x="614" y="224" type="line"/>
      <point x="614" y="129" type="line"/>
      <point x="431" y="129" type="line"/>
      <point x="431" y="0" type="line"/>
      <point x="229" y="0" type="line"/>
      <point x="229" y="129" type="line"/>
      <point x="46" y="129" type="line"/>
      <point x="46" y="224" type="line"/>
      <point x="229" y="224" type="line"/>
      <point x="229" y="284" type="line"/>
      <point x="208" y="325" type="line"/>
      <point x="46" y="325" type="line"/>
      <point x="46" y="420" type="line"/>
      <point x="159" y="420" type="line"/>
      <point x="3" y="720" type="line"/>
      <point x="228" y="720" type="line"/>
      <point x="340" y="455" type="line"/>
      <point x="452" y="720" type="line"/>
    </contour>
  </outline>
</glyph>
<glyph name="copyright" format="1">
  <advance width="810"/>
  <unicode hex="00A9"/>
  <outline>
    <contour>
      <point x="777" y="361" type="curve" smooth="yes"/>
      <point x="777" y="147"/>
      <point x="618" y="-12"/>
      <point x="404" y="-12" type="curve" smooth="yes"/>
      <point x="190" y="-12"/>
      <point x="33" y="145"/>
      <point x="33" y="359" type="curve" smooth="yes"/>
      <point x="33" y="573"/>
      <point x="192" y="732"/>
      <point x="406" y="732" type="curve" smooth="yes"/>
      <point x="620" y="732"/>
      <point x="777" y="575"/>
    </contour>
    <contour>
      <point x="728" y="359" type="curve" smooth="yes"/>
      <point x="728" y="551"/>
      <point x="596" y="690"/>
      <point x="404" y="690" type="curve" smooth="yes"/>
      <point x="212" y="690"/>
      <point x="82" y="553"/>
      <point x="82" y="361" type="curve" smooth="yes"/>
      <point x="82" y="169"/>
      <point x="214" y="30"/>
      <point x="406" y="30" type="curve" smooth="yes"/>
      <point x="598" y="30"/>
      <point x="728" y="167"/>
    </contour>
    <contour>
      <point x="576" y="290" type="line"/>
      <point x="561" y="192"/>
      <point x="504" y="141"/>
      <point x="405" y="141" type="curve" smooth="yes"/>
      <point x="300" y="141"/>
      <point x="226" y="209"/>
      <point x="226" y="344" type="curve" smooth="yes"/>
      <point x="226" y="386" type="line" smooth="yes"/>
      <point x="226" y="521"/>
      <point x="300" y="588"/>
      <point x="405" y="588" type="curve" smooth="yes"/>
      <point x="519" y="588"/>
      <point x="563" y="523"/>
      <point x="575" y="437" type="curve"/>
      <point x="451" y="409" type="line"/>
      <point x="445" y="468"/>
      <point x="434" y="491"/>
      <point x="405" y="491" type="curve" smooth="yes"/>
      <point x="372" y="491"/>
      <point x="361" y="458"/>
      <point x="361" y="403" type="curve" smooth="yes"/>
      <point x="361" y="326" type="line" smooth="yes"/>
      <point x="361" y="272"/>
      <point x="372" y="239"/>
      <point x="406" y="239" type="curve" smooth="yes"/>
      <point x="436" y="239"/>
      <point x="448" y="259"/>
      <point x="457" y="317" type="curve"/>
    </contour>
  </outline>
</glyph>
<glyph name="ordfeminine" format="1">
  <advance width="420"/>
  <unicode hex="00AA"/>
  <outline>
    <contour>
      <point x="389" y="355" type="line"/>
      <point x="296" y="355"/>
      <point x="253" y="371"/>
      <point x="238" y="402" type="curve"/>
      <point x="207" y="371"/>
      <point x="176" y="355"/>
      <point x="136" y="355" type="curve" smooth="yes"/>
      <point x="81" y="355"/>
      <point x="38" y="389"/>
      <point x="38" y="451" type="curve" smooth="yes"/>
      <point x="38" y="525"/>
      <point x="97" y="565"/>
      <point x="233" y="573" type="curve"/>
      <point x="233" y="601" type="line" smooth="yes"/>
      <point x="233" y="621"/>
      <point x="219" y="635"/>
      <point x="194" y="635" type="curve" smooth="yes"/>
      <point x="170" y="635"/>
      <point x="139" y="627"/>
      <point x="89" y="601" type="curve"/>
      <point x="54" y="680" type="line"/>
      <point x="111" y="709"/>
      <point x="160" y="725"/>
      <point x="218" y="725" type="curve" smooth="yes"/>
      <point x="317" y="725"/>
      <point x="358" y="690"/>
      <point x="358" y="603" type="curve" smooth="yes"/>
      <point x="358" y="433" type="line" smooth="yes"/>
      <point x="358" y="408"/>
      <point x="363" y="404"/>
      <point x="389" y="400" type="curve"/>
    </contour>
    <contour>
      <point x="382" y="236" type="line"/>
      <point x="41" y="236" type="line"/>
      <point x="41" y="303" type="line"/>
      <point x="382" y="303" type="line"/>
    </contour>
    <contour>
      <point x="233" y="440" type="curve"/>
      <point x="233" y="527" type="line"/>
      <point x="176" y="518"/>
      <point x="160" y="499"/>
      <point x="160" y="469" type="curve" smooth="yes"/>
      <point x="160" y="445"/>
      <point x="174" y="432"/>
      <point x="198" y="432" type="curve" smooth="yes"/>
      <point x="211" y="432"/>
      <point x="221" y="434"/>
    </contour>
  </outline>
</glyph>
<glyph name="guillemotleft" format="1">
  <advance width="540"/>
  <unicode hex="00AB"/>
  <outline>
    <contour>
      <point x="515" y="65" type="line"/>
      <point x="411" y="65" type="line"/>
      <point x="246" y="271" type="line"/>
      <point x="411" y="477" type="line"/>
      <point x="515" y="477" type="line"/>
      <point x="448" y="271" type="line"/>
    </contour>
    <contour>
      <point x="279" y="65" type="line"/>
      <point x="175" y="65" type="line"/>
      <point x="10" y="271" type="line"/>
      <point x="175" y="477" type="line"/>
      <point x="279" y="477" type="line"/>
      <point x="212" y="271" type="line"/>
    </contour>
  </outline>
</glyph>
<glyph name="acute" format="1">
  <advance width="500"/>
  <unicode hex="00B4"/>
  <outline>
    <contour>
      <point x="414" y="743" type="line"/>
      <point x="256" y="592" type="line"/>
      <point x="125" y="592" type="line"/>
      <point x="195" y="743" type="line"/>
    </contour>
  </outline>
</glyph>
<glyph name="ordmasculine" format="1">
  <advance width="420"/>
  <unicode hex="00BA"/>
  <outline>
    <contour>
      <point x="383" y="539" type="curve" smooth="yes"/>
      <point x="383" y="417"/>
      <point x="321" y="350"/>
      <point x="210" y="350" type="curve" smooth="yes"/>
      <point x="99" y="350"/>
      <point x="37" y="416"/>
      <point x="37" y="538" type="curve" smooth="yes"/>
      <point x="37" y="660"/>
      <point x="99" y="727"/>
      <point x="210" y="727" type="curve" smooth="yes"/>
      <point x="321" y="727"/>
      <point x="383" y="661"/>
    </contour>
    <contour>
      <point x="376" y="236" type="line"/>
      <point x="44" y="236" type="line"/>
      <point x="44" y="303" type="line"/>
      <point x="376" y="303" type="line"/>
    </contour>
    <contour>
      <point x="247" y="538" type="curve" smooth="yes"/>
      <point x="247" y="620"/>
      <point x="237" y="646"/>
      <point x="210" y="646" type="curve" smooth="yes"/>
      <point x="183" y="646"/>
      <point x="173" y="621"/>
      <point x="173" y="539" type="curve" smooth="yes"/>
      <point x="173" y="457"/>
      <point x="183" y="431"/>
      <point x="210" y="431" type="curve" smooth="yes"/>
      <point x="237" y="431"/>
      <point x="247" y="456"/>
    </contour>
  </outline>
</glyph>
<glyph name="guillemotright" format="1">
  <advance width="540"/>
  <unicode hex="00BB"/>
  <outline>
    <contour>
      <point x="530" y="271" type="line"/>
      <point x="365" y="65" type="line"/>
      <point x="261" y="65" type="line"/>
      <point x="328" y="271" type="line"/>
      <point x="261" y="477" type="line"/>
      <point x="365" y="477" type="line"/>
    </contour>
    <contour>
      <point x="294" y="271" type="line"/>
      <point x="129" y="65" type="line"/>
      <point x="25" y="65" type="line"/>
      <point x="92" y="271" type="line"/>
      <point x="25" y="477" type="line"/>
      <point x="129" y="477" type="line"/>
    </contour>
  </outline>
</glyph>
<glyph name="Ccedilla" format="1">
  <advance width="628"/>
  <unicode hex="00C7"/>
  <outline>
    <contour>
      <point x="613" y="235" type="line"/>
      <point x="588" y="79"/>
      <point x="501" y="-5"/>
      <point x="347" y="-12" type="curve"/>
      <point x="322" y="-41" type="line"/>
      <point x="332" y="-40"/>
      <point x="353" y="-38"/>
      <point x="372" y="-38" type="curve" smooth="yes"/>
      <point x="427" y="-38"/>
      <point x="466" y="-56"/>
      <point x="466" y="-95" type="curve" smooth="yes"/>
      <point x="466" y="-163"/>
      <point x="390" y="-195"/>
      <point x="172" y="-191" type="curve"/>
      <point x="172" y="-156" type="line"/>
      <point x="313" y="-156"/>
      <point x="355" y="-142"/>
      <point x="355" y="-120" type="curve" smooth="yes"/>
      <point x="355" y="-108"/>
      <point x="345" y="-102"/>
      <point x="322" y="-102" type="curve" smooth="yes"/>
      <point x="305" y="-102"/>
      <point x="286" y="-106"/>
      <point x="267" y="-112" type="curve"/>
      <point x="228" y="-88" type="line"/>
      <point x="293" y="-11" type="line"/>
      <point x="136" y="3"/>
      <point x="30" y="115"/>
      <point x="30" y="325" type="curve" smooth="yes"/>
      <point x="30" y="395" type="line" smooth="yes"/>
      <point x="30" y="620"/>
      <point x="152" y="732"/>
      <point x="327" y="732" type="curve" smooth="yes"/>
      <point x="517" y="732"/>
      <point x="591" y="624"/>
      <point x="611" y="481" type="curve"/>
      <point x="404" y="434" type="line"/>
      <point x="394" y="532"/>
      <point x="376" y="570"/>
      <point x="327" y="570" type="curve" smooth="yes"/>
      <point x="272" y="570"/>
      <point x="254" y="515"/>
      <point x="254" y="424" type="curve" smooth="yes"/>
      <point x="254" y="296" type="line" smooth="yes"/>
      <point x="254" y="205"/>
      <point x="273" y="150"/>
      <point x="330" y="150" type="curve" smooth="yes"/>
      <point x="380" y="150"/>
      <point x="400" y="184"/>
      <point x="414" y="281" type="curve"/>
    </contour>
  </outline>
</glyph>
<glyph name="multiply" format="1">
  <advance width="600"/>
  <unicode hex="00D7"/>
  <outline>
    <contour>
      <point x="569" y="207" type="line"/>
      <point x="448" y="86" type="line"/>
      <point x="300" y="241" type="line"/>
      <point x="152" y="86" type="line"/>
      <point x="31" y="207" type="line"/>
      <point x="186" y="355" type="line"/>
      <point x="31" y="503" type="line"/>
      <point x="152" y="624" type="line"/>
      <point x="300" y="469" type="line"/>
      <point x="448" y="624" type="line"/>
      <point x="569" y="503" type="line"/>
      <point x="414" y="355" type="line"/>
    </contour>
  </outline>
</glyph>
<glyph name="Oslash" format="1">
  <advance width="664"/>
  <unicode hex="00D8"/>
  <outline>
    <contour>
      <point x="634" y="325" type="line" smooth="yes"/>
      <point x="634" y="100"/>
      <point x="512" y="-12"/>
      <point x="332" y="-12" type="curve" smooth="yes"/>
      <point x="284" y="-12"/>
      <point x="240" y="-4"/>
      <point x="201" y="12" type="curve"/>
      <point x="148" y="-95" type="line"/>
      <point x="30" y="-95" type="line"/>
      <point x="121" y="64" type="line"/>
      <point x="63" y="120"/>
      <point x="30" y="207"/>
      <point x="30" y="325" type="curve" smooth="yes"/>
      <point x="30" y="395" type="line" smooth="yes"/>
      <point x="30" y="620"/>
      <point x="152" y="732"/>
      <point x="332" y="732" type="curve" smooth="yes"/>
      <point x="380" y="732"/>
      <point x="423" y="724"/>
      <point x="462" y="708" type="curve"/>
      <point x="516" y="817" type="line"/>
      <point x="634" y="817" type="line"/>
      <point x="541" y="657" type="line"/>
      <point x="600" y="601"/>
      <point x="634" y="514"/>
      <point x="634" y="395" type="curve" smooth="yes"/>
    </contour>
    <contour>
      <point x="387" y="557" type="line"/>
      <point x="373" y="571"/>
      <point x="354" y="578"/>
      <point x="332" y="578" type="curve" smooth="yes"/>
      <point x="273" y="578"/>
      <point x="242" y="532"/>
      <point x="242" y="424" type="curve" smooth="yes"/>
      <point x="242" y="296" type="line" smooth="yes"/>
      <point x="242" y="286"/>
      <point x="242" y="277"/>
      <point x="243" y="268" type="curve"/>
    </contour>
    <contour>
      <point x="422" y="296" type="curve" smooth="yes"/>
      <point x="422" y="424" type="line" smooth="yes"/>
      <point x="422" y="434"/>
      <point x="422" y="444"/>
      <point x="421" y="454" type="curve"/>
      <point x="276" y="163" type="line"/>
      <point x="291" y="149"/>
      <point x="309" y="142"/>
      <point x="332" y="142" type="curve" smooth="yes"/>
      <point x="391" y="142"/>
      <point x="422" y="188"/>
    </contour>
  </outline>
</glyph>
<glyph name="Thorn" format="1">
  <advance width="605"/>
  <unicode hex="00DE"/>
  <outline>
    <contour>
      <point x="594" y="379" type="curve" smooth="yes"/>
      <point x="594" y="216"/>
      <point x="489" y="138"/>
      <point x="306" y="138" type="curve" smooth="yes"/>
      <point x="258" y="138" type="line"/>
      <point x="258" y="0" type="line"/>
      <point x="42" y="0" type="line"/>
      <point x="42" y="720" type="line"/>
      <point x="258" y="720" type="line"/>
      <point x="258" y="602" type="line"/>
      <point x="316" y="602" type="line" smooth="yes"/>
      <point x="484" y="602"/>
      <point x="594" y="532"/>
    </contour>
    <contour>
      <point x="379" y="376" type="curve" smooth="yes"/>
      <point x="379" y="427"/>
      <point x="348" y="452"/>
      <point x="293" y="452" type="curve" smooth="yes"/>
      <point x="249" y="452" type="line"/>
      <point x="249" y="292" type="line"/>
      <point x="293" y="292" type="line" smooth="yes"/>
      <point x="350" y="292"/>
      <point x="379" y="324"/>
    </contour>
  </outline>
</glyph>
<glyph name="ccedilla" format="1">
  <advance width="520"/>
  <unicode hex="00E7"/>
  <outline>
    <contour>
      <point x="507" y="178" type="line"/>
      <point x="484" y="54"/>
      <point x="411" y="-3"/>
      <point x="293" y="-9" type="curve"/>
      <point x="266" y="-41" type="line"/>
      <point x="276" y="-40"/>
      <point x="297" y="-38"/>
      <point x="316" y="-38" type="curve" smooth="yes"/>
      <point x="371" y="-38"/>
      <point x="410" y="-56"/>
      <point x="410" y="-95" type="curve" smooth="yes"/>
      <point x="410" y="-163"/>
      <point x="334" y="-195"/>
      <point x="116" y="-191" type="curve"/>
      <point x="116" y="-156" type="line"/>
      <point x="257" y="-156"/>
      <point x="299" y="-142"/>
      <point x="299" y="-120" type="curve" smooth="yes"/>
      <point x="299" y="-108"/>
      <point x="289" y="-102"/>
      <point x="266" y="-102" type="curve" smooth="yes"/>
      <point x="249" y="-102"/>
      <point x="230" y="-106"/>
      <point x="211" y="-112" type="curve"/>
      <point x="172" y="-88" type="line"/>
      <point x="239" y="-9" type="line"/>
      <point x="104" y="3"/>
      <point x="22" y="98"/>
      <point x="22" y="255" type="curve" smooth="yes"/>
      <point x="22" y="287" type="line" smooth="yes"/>
      <point x="22" y="455"/>
      <point x="117" y="552"/>
      <point x="275" y="552" type="curve" smooth="yes"/>
      <point x="410" y="552"/>
      <point x="488" y="488"/>
      <point x="506" y="354" type="curve"/>
      <point x="322" y="321" type="line"/>
      <point x="318" y="394"/>
      <point x="308" y="422"/>
      <point x="273" y="422" type="curve" smooth="yes"/>
      <point x="238" y="422"/>
      <point x="225" y="391"/>
      <point x="225" y="278" type="curve" smooth="yes"/>
      <point x="225" y="264" type="line" smooth="yes"/>
      <point x="225" y="151"/>
      <point x="240" y="120"/>
      <point x="275" y="120" type="curve" smooth="yes"/>
      <point x="303" y="120"/>
      <point x="318" y="139"/>
      <point x="327" y="211" type="curve"/>
    </contour>
  </outline>
</glyph>
<glyph name="divide" format="1">
  <advance width="600"/>
  <unicode hex="00F7"/>
  <outline>
    <contour>
      <point x="405" y="601" type="curve" smooth="yes"/>
      <point x="405" y="541"/>
      <point x="360" y="496"/>
      <point x="300" y="496" type="curve" smooth="yes"/>
      <point x="240" y="496"/>
      <point x="195" y="541"/>
      <point x="195" y="601" type="curve" smooth="yes"/>
      <point x="195" y="661"/>
      <point x="240" y="706"/>
      <point x="300" y="706" type="curve" smooth="yes"/>
      <point x="360" y="706"/>
      <point x="405" y="661"/>
    </contour>
    <contour>
      <point x="567" y="274" type="line"/>
      <point x="33" y="274" type="line"/>
      <point x="33" y="436" type="line"/>
      <point x="567" y="436" type="line"/>
    </contour>
    <contour>
      <point x="405" y="109" type="curve" smooth="yes"/>
      <point x="405" y="49"/>
      <point x="360" y="4"/>
      <point x="300" y="4" type="curve" smooth="yes"/>
      <point x="240" y="4"/>
      <point x="195" y="49"/>
      <point x="195" y="109" type="curve" smooth="yes"/>
      <point x="195" y="169"/>
      <point x="240" y="214"/>
      <point x="300" y="214" type="curve" smooth="yes"/>
      <point x="360" y="214"/>
      <point x="405" y="169"/>
    </contour>
  </outline>
</glyph>
<glyph name="oslash" format="1">
  <advance width="552"/>
  <unicode hex="00F8"/>
  <outline>
    <contour>
      <point x="530" y="255" type="line" smooth="yes"/>
      <point x="530" y="87"/>
      <point x="437" y="-10"/>
      <point x="276" y="-10" type="curve" smooth="yes"/>
      <point x="241" y="-10"/>
      <point x="210" y="-5"/>
      <point x="181" y="3" type="curve"/>
      <point x="134" y="-95" type="line"/>
      <point x="23" y="-95" type="line"/>
      <point x="104" y="44" type="line"/>
      <point x="51" y="89"/>
      <point x="22" y="161"/>
      <point x="22" y="255" type="curve" smooth="yes"/>
      <point x="22" y="287" type="line" smooth="yes"/>
      <point x="22" y="455"/>
      <point x="115" y="552"/>
      <point x="276" y="552" type="curve" smooth="yes"/>
      <point x="311" y="552"/>
      <point x="343" y="547"/>
      <point x="372" y="538" type="curve"/>
      <point x="419" y="637" type="line"/>
      <point x="530" y="637" type="line"/>
      <point x="448" y="497" type="line"/>
      <point x="501" y="452"/>
      <point x="530" y="380"/>
      <point x="530" y="287" type="curve" smooth="yes"/>
    </contour>
    <contour>
      <point x="316" y="422" type="line"/>
      <point x="305" y="435"/>
      <point x="291" y="440"/>
      <point x="276" y="440" type="curve" smooth="yes"/>
      <point x="237" y="440"/>
      <point x="209" y="409"/>
      <point x="209" y="288" type="curve" smooth="yes"/>
      <point x="209" y="254" type="line" smooth="yes"/>
      <point x="209" y="236"/>
      <point x="210" y="220"/>
      <point x="211" y="205" type="curve"/>
    </contour>
    <contour>
      <point x="343" y="254" type="curve" smooth="yes"/>
      <point x="343" y="288" type="line" smooth="yes"/>
      <point x="343" y="306"/>
      <point x="342" y="321"/>
      <point x="341" y="335" type="curve"/>
      <point x="237" y="119" type="line"/>
      <point x="248" y="106"/>
      <point x="261" y="102"/>
      <point x="276" y="102" type="curve" smooth="yes"/>
      <point x="315" y="102"/>
      <point x="343" y="133"/>
    </contour>
  </outline>
</glyph>
<glyph name="OE" format="1">
  <advance width="914"/>
  <unicode hex="0152"/>
  <outline>
    <contour>
      <point x="891" y="0" type="line"/>
      <point x="348" y="0" type="line" smooth="yes"/>
      <point x="149" y="0"/>
      <point x="30" y="111"/>
      <point x="30" y="333" type="curve" smooth="yes"/>
      <point x="30" y="387" type="line" smooth="yes"/>
      <point x="30" y="609"/>
      <point x="149" y="720"/>
      <point x="348" y="720" type="curve" smooth="yes"/>
      <point x="879" y="720" type="line"/>
      <point x="879" y="556" type="line"/>
      <point x="601" y="556" type="line"/>
      <point x="601" y="447" type="line"/>
      <point x="791" y="447" type="line"/>
      <point x="791" y="291" type="line"/>
      <point x="601" y="291" type="line"/>
      <point x="601" y="164" type="line"/>
      <point x="891" y="164" type="line"/>
    </contour>
    <contour>
      <point x="395" y="158" type="line"/>
      <point x="395" y="562" type="line"/>
      <point x="358" y="562" type="line" smooth="yes"/>
      <point x="289" y="562"/>
      <point x="249" y="514"/>
      <point x="249" y="410" type="curve" smooth="yes"/>
      <point x="249" y="310" type="line" smooth="yes"/>
      <point x="249" y="206"/>
      <point x="289" y="158"/>
      <point x="358" y="158" type="curve" smooth="yes"/>
    </contour>
  </outline>
</glyph>
<glyph name="caron" format="1">
  <advance width="500"/>
  <unicode hex="02C7"/>
  <outline>
    <contour>
      <point x="429" y="763" type="line"/>
      <point x="322" y="592" type="line"/>
      <point x="178" y="592" type="line"/>
      <point x="71" y="763" type="line"/>
      <point x="166" y="763" type="line"/>
      <point x="251" y="694" type="line"/>
      <point x="336" y="763" type="line"/>
    </contour>
  </outline>
</glyph>
<glyph name="breve" format="1">
  <advance width="500"/>
  <unicode hex="02D8"/>
  <outline>
    <contour>
      <point x="416" y="763" type="line"/>
      <point x="414" y="655"/>
      <point x="367" y="589"/>
      <point x="250" y="589" type="curve" smooth="yes"/>
      <point x="133" y="589"/>
      <point x="86" y="655"/>
      <point x="84" y="763" type="curve"/>
      <point x="159" y="763" type="line"/>
      <point x="167" y="719"/>
      <point x="186" y="687"/>
      <point x="250" y="687" type="curve" smooth="yes"/>
      <point x="314" y="687"/>
      <point x="333" y="719"/>
      <point x="341" y="763" type="curve"/>
    </contour>
  </outline>
</glyph>
<glyph name="ring" format="1">
  <advance width="500"/>
  <unicode hex="02DA"/>
  <outline>
    <contour>
      <point x="393" y="693" type="curve" smooth="yes"/>
      <point x="393" y="627"/>
      <point x="341" y="585"/>
      <point x="250" y="585" type="curve" smooth="yes"/>
      <point x="159" y="585"/>
      <point x="107" y="627"/>
      <point x="107" y="693" type="curve" smooth="yes"/>
      <point x="107" y="757"/>
      <point x="159" y="800"/>
      <point x="250" y="800" type="curve" smooth="yes"/>
      <point x="341" y="800"/>
      <point x="393" y="757"/>
    </contour>
    <contour>
      <point x="298" y="693" type="curve" smooth="yes"/>
      <point x="298" y="722"/>
      <point x="278" y="743"/>
      <point x="250" y="743" type="curve" smooth="yes"/>
      <point x="222" y="743"/>
      <point x="202" y="722"/>
      <point x="202" y="693" type="curve" smooth="yes"/>
      <point x="202" y="663"/>
      <point x="221" y="642"/>
      <point x="250" y="642" type="curve" smooth="yes"/>
      <point x="279" y="642"/>
      <point x="298" y="663"/>
    </contour>
  </outline>
</glyph>
<glyph name="ogonek" format="1">
  <advance width="500"/>
  <unicode hex="02DB"/>
  <outline>
    <contour>
      <point x="404" y="-158" type="line"/>
      <point x="358" y="-180"/>
      <point x="313" y="-190"/>
      <point x="253" y="-190" type="curve" smooth="yes"/>
      <point x="173" y="-190"/>
      <point x="131" y="-161"/>
      <point x="131" y="-114" type="curve" smooth="yes"/>
      <point x="131" y="-71"/>
      <point x="169" y="-33"/>
      <point x="245" y="0" type="curve"/>
      <point x="327" y="0" type="line"/>
      <point x="268" y="-41"/>
      <point x="255" y="-66"/>
      <point x="255" y="-88" type="curve" smooth="yes"/>
      <point x="255" y="-109"/>
      <point x="272" y="-122"/>
      <point x="303" y="-122" type="curve" smooth="yes"/>
      <point x="328" y="-122"/>
      <point x="350" y="-120"/>
      <point x="384" y="-111" type="curve"/>
    </contour>
  </outline>
</glyph>
<glyph name="hungarumlaut" format="1">
  <advance width="500"/>
  <unicode hex="02DD"/>
  <outline>
    <contour>
      <point x="512" y="743" type="line"/>
      <point x="354" y="592" type="line"/>
      <point x="236" y="592" type="line"/>
      <point x="306" y="743" type="line"/>
    </contour>
    <contour>
      <point x="278" y="743" type="line"/>
      <point x="120" y="592" type="line"/>
      <point x="2" y="592" type="line"/>
      <point x="72" y="743" type="line"/>
    </contour>
  </outline>
</glyph>
<glyph name="emdash" format="1">
  <advance width="1000"/>
  <unicode hex="2014"/>
  <outline>
    <contour>
      <point x="967" y="210" type="line"/>
      <point x="33" y="210" type="line"/>
      <point x="33" y="376" type="line"/>
      <point x="967" y="376" type="line"/>
    </contour>
  </outline>
</glyph>
<glyph name="quoteleft" format="1">
  <advance width="268"/>
  <unicode hex="2018"/>
  <unicode hex="02BB"/>
  <outline>
    <contour>
      <point x="245" y="399" type="line"/>
      <point x="136" y="399" type="line"/>
      <point x="8" y="720" type="line"/>
      <point x="221" y="720" type="line"/>
    </contour>
  </outline>
</glyph>
<glyph name="quotedblleft" format="1">
  <advance width="510"/>
  <unicode hex="201C"/>
  <outline>
    <contour>
      <point x="487" y="399" type="line"/>
      <point x="383" y="399" type="line"/>
      <point x="255" y="720" type="line"/>
      <point x="463" y="720" type="line"/>
    </contour>
    <contour>
      <point x="240" y="399" type="line"/>
      <point x="136" y="399" type="line"/>
      <point x="8" y="720" type="line"/>
      <point x="216" y="720" type="line"/>
    </contour>
  </outline>
</glyph>
<glyph name="quotedblright" format="1">
  <advance width="510"/>
  <unicode hex="201D"/>
  <outline>
    <contour>
      <point x="502" y="720" type="line"/>
      <point x="374" y="399" type="line"/>
      <point x="270" y="399" type="line"/>
      <point x="294" y="720" type="line"/>
    </contour>
    <contour>
      <point x="255" y="720" type="line"/>
      <point x="127" y="399" type="line"/>
      <point x="23" y="399" type="line"/>
      <point x="47" y="720" type="line"/>
    </contour>
  </outline>
</glyph>
<glyph name="ellipsis" format="1">
  <advance width="796"/>
  <unicode hex="2026"/>
  <outline>
    <contour>
      <point x="771" y="98" type="curve" smooth="yes"/>
      <point x="771" y="38"/>
      <point x="726" y="-7"/>
      <point x="666" y="-7" type="curve" smooth="yes"/>
      <point x="606" y="-7"/>
      <point x="561" y="38"/>
      <point x="561" y="98" type="curve" smooth="yes"/>
      <point x="561" y="158"/>
      <point x="606" y="203"/>
      <point x="666" y="203" type="curve" smooth="yes"/>
      <point x="726" y="203"/>
      <point x="771" y="158"/>
    </contour>
    <contour>
      <point x="503" y="98" type="curve" smooth="yes"/>
      <point x="503" y="38"/>
      <point x="458" y="-7"/>
      <point x="398" y="-7" type="curve" smooth="yes"/>
      <point x="338" y="-7"/>
      <point x="293" y="38"/>
      <point x="293" y="98" type="curve" smooth="yes"/>
      <point x="293" y="158"/>
      <point x="338" y="203"/>
      <point x="398" y="203" type="curve" smooth="yes"/>
      <point x="458" y="203"/>
      <point x="503" y="158"/>
    </contour>
    <contour>
      <point x="235" y="98" type="curve" smooth="yes"/>
      <point x="235" y="38"/>
      <point x="190" y="-7"/>
      <point x="130" y="-7" type="curve" smooth="yes"/>
      <point x="70" y="-7"/>
      <point x="25" y="38"/>
      <point x="25" y="98" type="curve" smooth="yes"/>
      <point x="25" y="158"/>
      <point x="70" y="203"/>
      <point x="130" y="203" type="curve" smooth="yes"/>
      <point x="190" y="203"/>
      <point x="235" y="158"/>
    </contour>
  </outline>
</glyph>
<glyph name="perthousand" format="1">
  <advance width="1436"/>
  <unicode hex="2030"/>
  <outline>
    <contour>
      <point x="1415" y="215" type="curve" smooth="yes"/>
      <point x="1415" y="72"/>
      <point x="1332" y="-7"/>
      <point x="1210" y="-7" type="curve" smooth="yes"/>
      <point x="1088" y="-7"/>
      <point x="1007" y="69"/>
      <point x="1007" y="215" type="curve" smooth="yes"/>
      <point x="1007" y="358"/>
      <point x="1090" y="437"/>
      <point x="1212" y="437" type="curve" smooth="yes"/>
      <point x="1334" y="437"/>
      <point x="1415" y="361"/>
    </contour>
    <contour>
      <point x="969" y="215" type="curve" smooth="yes"/>
      <point x="969" y="72"/>
      <point x="886" y="-7"/>
      <point x="764" y="-7" type="curve" smooth="yes"/>
      <point x="642" y="-7"/>
      <point x="561" y="69"/>
      <point x="561" y="215" type="curve" smooth="yes"/>
      <point x="561" y="358"/>
      <point x="644" y="437"/>
      <point x="766" y="437" type="curve" smooth="yes"/>
      <point x="888" y="437"/>
      <point x="969" y="361"/>
    </contour>
    <contour>
      <point x="805" y="720" type="line"/>
      <point x="534" y="343" type="line"/>
      <point x="357" y="0" type="line"/>
      <point x="185" y="0" type="line"/>
      <point x="456" y="377" type="line"/>
      <point x="633" y="720" type="line"/>
    </contour>
    <contour>
      <point x="429" y="505" type="curve" smooth="yes"/>
      <point x="429" y="362"/>
      <point x="346" y="283"/>
      <point x="224" y="283" type="curve" smooth="yes"/>
      <point x="102" y="283"/>
      <point x="21" y="359"/>
      <point x="21" y="505" type="curve" smooth="yes"/>
      <point x="21" y="648"/>
      <point x="104" y="727"/>
      <point x="226" y="727" type="curve" smooth="yes"/>
      <point x="348" y="727"/>
      <point x="429" y="651"/>
    </contour>
    <contour>
      <point x="1269" y="214" type="curve" smooth="yes"/>
      <point x="1269" y="286"/>
      <point x="1251" y="323"/>
      <point x="1211" y="323" type="curve" smooth="yes"/>
      <point x="1171" y="323"/>
      <point x="1153" y="288"/>
      <point x="1153" y="216" type="curve" smooth="yes"/>
      <point x="1153" y="144"/>
      <point x="1171" y="107"/>
      <point x="1211" y="107" type="curve" smooth="yes"/>
      <point x="1251" y="107"/>
      <point x="1269" y="142"/>
    </contour>
    <contour>
      <point x="823" y="214" type="curve" smooth="yes"/>
      <point x="823" y="286"/>
      <point x="805" y="323"/>
      <point x="765" y="323" type="curve" smooth="yes"/>
      <point x="725" y="323"/>
      <point x="707" y="288"/>
      <point x="707" y="216" type="curve" smooth="yes"/>
      <point x="707" y="144"/>
      <point x="725" y="107"/>
      <point x="765" y="107" type="curve" smooth="yes"/>
      <point x="805" y="107"/>
      <point x="823" y="142"/>
    </contour>
    <contour>
      <point x="283" y="504" type="curve" smooth="yes"/>
      <point x="283" y="576"/>
      <point x="265" y="613"/>
      <point x="225" y="613" type="curve" smooth="yes"/>
      <point x="185" y="613"/>
      <point x="167" y="578"/>
      <point x="167" y="506" type="curve" smooth="yes"/>
      <point x="167" y="434"/>
      <point x="185" y="397"/>
      <point x="225" y="397" type="curve" smooth="yes"/>
      <point x="265" y="397"/>
      <point x="283" y="432"/>
    </contour>
  </outline>
</glyph>
<glyph name="guilsinglright" format="1">
  <advance width="304"/>
  <unicode hex="203A"/>
  <outline>
    <contour>
      <point x="294" y="271" type="line"/>
      <point x="129" y="65" type="line"/>
      <point x="25" y="65" type="line"/>
      <point x="92" y="271" type="line"/>
      <point x="25" y="477" type="line"/>
      <point x="129" y="477" type="line"/>
    </contour>
  </outline>
</glyph>
<glyph name="fraction" format="1">
  <advance width="420"/>
  <unicode hex="2044"/>
  <outline>
    <contour>
      <point x="492" y="735" type="line"/>
      <point x="112" y="-15" type="line"/>
      <point x="-72" y="-15" type="line"/>
      <point x="308" y="735" type="line"/>
    </contour>
  </outline>
</glyph>
<glyph name="Euro" format="1">
  <advance width="628"/>
  <unicode hex="20AC"/>
  <outline>
    <contour>
      <point x="601" y="123" type="line"/>
      <point x="526" y="25"/>
      <point x="450" y="-12"/>
      <point x="322" y="-12" type="curve" smooth="yes"/>
      <point x="153" y="-12"/>
      <point x="30" y="100"/>
      <point x="30" y="325" type="curve" smooth="yes"/>
      <point x="30" y="395" type="line" smooth="yes"/>
      <point x="30" y="620"/>
      <point x="152" y="732"/>
      <point x="327" y="732" type="curve" smooth="yes"/>
      <point x="460" y="732"/>
      <point x="524" y="702"/>
      <point x="599" y="607" type="curve"/>
      <point x="463" y="486" type="line"/>
      <point x="412" y="560"/>
      <point x="380" y="580"/>
      <point x="332" y="580" type="curve" smooth="yes"/>
      <point x="279" y="580"/>
      <point x="248" y="539"/>
      <point x="241" y="465" type="curve"/>
      <point x="421" y="465" type="line"/>
      <point x="421" y="385" type="line"/>
      <point x="239" y="385" type="line"/>
      <point x="239" y="384" type="line"/>
      <point x="239" y="326" type="line"/>
      <point x="239" y="325" type="line"/>
      <point x="421" y="325" type="line"/>
      <point x="421" y="245" type="line"/>
      <point x="242" y="245" type="line"/>
      <point x="252" y="178"/>
      <point x="284" y="140"/>
      <point x="345" y="140" type="curve" smooth="yes"/>
      <point x="393" y="140"/>
      <point x="432" y="166"/>
      <point x="483" y="233" type="curve"/>
    </contour>
  </outline>
</glyph>
<glyph name="uni2117" format="1">
  <advance width="810"/>
  <unicode hex="2117"/>
  <outline>
    <contour>
      <point x="777" y="361" type="curve" smooth="yes"/>
      <point x="777" y="147"/>
      <point x="618" y="-12"/>
      <point x="404" y="-12" type="curve" smooth="yes"/>
      <point x="190" y="-12"/>
      <point x="33" y="145"/>
      <point x="33" y="359" type="curve" smooth="yes"/>
      <point x="33" y="573"/>
      <point x="192" y="732"/>
      <point x="406" y="732" type="curve" smooth="yes"/>
      <point x="620" y="732"/>
      <point x="777" y="575"/>
    </contour>
    <contour>
      <point x="728" y="359" type="curve" smooth="yes"/>
      <point x="728" y="551"/>
      <point x="596" y="690"/>
      <point x="404" y="690" type="curve" smooth="yes"/>
      <point x="212" y="690"/>
      <point x="82" y="553"/>
      <point x="82" y="361" type="curve" smooth="yes"/>
      <point x="82" y="169"/>
      <point x="214" y="30"/>
      <point x="406" y="30" type="curve" smooth="yes"/>
      <point x="598" y="30"/>
      <point x="728" y="167"/>
    </contour>
    <contour>
      <point x="596" y="445" type="curve" smooth="yes"/>
      <point x="596" y="348"/>
      <point x="533" y="301"/>
      <point x="423" y="301" type="curve" smooth="yes"/>
      <point x="394" y="301" type="line"/>
      <point x="394" y="147" type="line"/>
      <point x="264" y="147" type="line"/>
      <point x="264" y="579" type="line"/>
      <point x="429" y="579" type="line" smooth="yes"/>
      <point x="530" y="579"/>
      <point x="596" y="537"/>
    </contour>
    <contour>
      <point x="467" y="444" type="curve" smooth="yes"/>
      <point x="467" y="474"/>
      <point x="448" y="489"/>
      <point x="415" y="489" type="curve" smooth="yes"/>
      <point x="389" y="489" type="line"/>
      <point x="389" y="393" type="line"/>
      <point x="415" y="393" type="line" smooth="yes"/>
      <point x="449" y="393"/>
      <point x="467" y="412"/>
    </contour>
  </outline>
</glyph>
<glyph name="minus" format="1">
  <advance width="600"/>
  <unicode hex="2212"/>
  <outline>
    <contour>
      <point x="567" y="268" type="line"/>
      <point x="33" y="268" type="line"/>
      <point x="33" y="442" type="line"/>
      <point x="567" y="442" type="line"/>
    </contour>
  </outline>
</glyph>
<glyph name="radical" format="1">
  <advance width="628"/>
  <unicode hex="221A"/>
  <outline>
    <contour>
      <point x="620" y="720" type="line"/>
      <point x="387" y="-4" type="line"/>
      <point x="164" y="-4" type="line"/>
      <point x="9" y="340" type="line"/>
      <point x="218" y="340" type="line"/>
      <point x="279" y="160" type="line"/>
      <point x="395" y="720" type="line"/>
    </contour>
  </outline>
</glyph>
<glyph name="apple" format="1">
  <advance width="500"/>
  <unicode hex="F8FF"/>
  <outline>
    <contour>
      <point x="480" y="228" type="line"/>
      <point x="421" y="50" type="line"/>
      <point x="284" y="159" type="line"/>
      <point x="345" y="0" type="line"/>
      <point x="155" y="0" type="line"/>
      <point x="216" y="159" type="line"/>
      <point x="79" y="50" type="line"/>
      <point x="20" y="228" type="line"/>
      <point x="195" y="222" type="line"/>
      <point x="26" y="355" type="line"/>
      <point x="26" y="365" type="line"/>
      <point x="195" y="498" type="line"/>
      <point x="20" y="492" type="line"/>
      <point x="79" y="670" type="line"/>
      <point x="216" y="561" type="line"/>
      <point x="155" y="720" type="line"/>
      <point x="345" y="720" type="line"/>
      <point x="284" y="561" type="line"/>
      <point x="421" y="670" type="line"/>
      <point x="480" y="492" type="line"/>
      <point x="305" y="498" type="line"/>
      <point x="474" y="365" type="line"/>
      <point x="474" y="355" type="line"/>
      <point x="305" y="222" type="line"/>
    </contour>
    <contour>
      <point x="311" y="360" type="line"/>
      <point x="250" y="482" type="line"/>
      <point x="189" y="360" type="line"/>
      <point x="250" y="238" type="line"/>
    </contour>
  </outline>
</glyph>
<glyph name="macron" format="1">
  <advance width="500"/>
  <outline>
    <contour>
      <point x="406" y="618" type="line"/>
      <point x="94" y="618" type="line"/>
      <point x="94" y="730" type="line"/>
      <point x="406" y="730" type="line"/>
    </contour>
  </outline>
</glyph>
<glyph name="registered.big" format="1">
  <advance width="810"/>
  <outline>
    <contour>
      <point x="777" y="361" type="curve" smooth="yes"/>
      <point x="777" y="147"/>
      <point x="618" y="-12"/>
      <point x="404" y="-12" type="curve" smooth="yes"/>
      <point x="190" y="-12"/>
      <point x="33" y="145"/>
      <point x="33" y="359" type="curve" smooth="yes"/>
      <point x="33" y="573"/>
      <point x="192" y="732"/>
      <point x="406" y="732" type="curve" smooth="yes"/>
      <point x="620" y="732"/>
      <point x="777" y="575"/>
    </contour>
    <contour>
      <point x="728" y="359" type="curve" smooth="yes"/>
      <point x="728" y="551"/>
      <point x="596" y="690"/>
      <point x="404" y="690" type="curve" smooth="yes"/>
      <point x="212" y="690"/>
      <point x="82" y="553"/>
      <point x="82" y="361" type="curve" smooth="yes"/>
      <point x="82" y="169"/>
      <point x="214" y="30"/>
      <point x="406" y="30" type="curve" smooth="yes"/>
      <point x="598" y="30"/>
      <point x="728" y="167"/>
    </contour>
    <contour>
      <point x="604" y="153" type="line"/>
      <point x="466" y="153" type="line"/>
      <point x="388" y="315" type="line"/>
      <point x="377" y="315" type="line"/>
      <point x="377" y="153" type="line"/>
      <point x="247" y="153" type="line"/>
      <point x="247" y="585" type="line"/>
      <point x="418" y="585" type="line" smooth="yes"/>
      <point x="517" y="585"/>
      <point x="581" y="543"/>
      <point x="581" y="451" type="curve" smooth="yes"/>
      <point x="581" y="397"/>
      <point x="556" y="357"/>
      <point x="510" y="335" type="curve"/>
    </contour>
    <contour>
      <point x="452" y="450" type="curve" smooth="yes"/>
      <point x="452" y="480"/>
      <point x="434" y="495"/>
      <point x="401" y="495" type="curve" smooth="yes"/>
      <point x="371" y="495" type="line"/>
      <point x="371" y="399" type="line"/>
      <point x="401" y="399" type="line" smooth="yes"/>
      <point x="435" y="399"/>
      <point x="452" y="418"/>
    </contour>
  </outline>
</glyph>
